<mxfile host="Electron" modified="2023-06-23T15:32:09.174Z" agent="Mozilla/5.0 (Macintosh; Intel Mac OS X 10_15_7) AppleWebKit/537.36 (KHTML, like Gecko) draw.io/21.4.0 Chrome/112.0.5615.204 Electron/24.5.1 Safari/537.36" etag="mt37SFDTFrOqJaMvK3W_" version="21.4.0" type="device">
  <diagram name="Page-1" id="HQwppCzVKifW6PQdN1zE">
    <mxGraphModel dx="1434" dy="1374" grid="1" gridSize="10" guides="1" tooltips="1" connect="1" arrows="1" fold="1" page="1" pageScale="1" pageWidth="850" pageHeight="1100" math="0" shadow="0">
      <root>
        <mxCell id="0" />
        <mxCell id="1" parent="0" />
        <mxCell id="D4EkVAlg6UuBSGmFTa5y-6" value="S3 Copy Operations" style="rounded=1;whiteSpace=wrap;html=1;verticalAlign=top;fontStyle=1" vertex="1" parent="1">
          <mxGeometry x="40" y="40" width="200" height="350" as="geometry" />
        </mxCell>
        <mxCell id="D4EkVAlg6UuBSGmFTa5y-3" value="" style="edgeStyle=orthogonalEdgeStyle;rounded=0;orthogonalLoop=1;jettySize=auto;html=1;" edge="1" parent="1" source="D4EkVAlg6UuBSGmFTa5y-1" target="D4EkVAlg6UuBSGmFTa5y-2">
          <mxGeometry relative="1" as="geometry" />
        </mxCell>
        <mxCell id="D4EkVAlg6UuBSGmFTa5y-1" value="Fetch warc.paths.gz" style="rounded=0;whiteSpace=wrap;html=1;fillColor=#d5e8d4;strokeColor=#82b366;" vertex="1" parent="1">
          <mxGeometry x="70" y="80" width="140" height="40" as="geometry" />
        </mxCell>
        <mxCell id="D4EkVAlg6UuBSGmFTa5y-5" value="" style="edgeStyle=orthogonalEdgeStyle;rounded=0;orthogonalLoop=1;jettySize=auto;html=1;" edge="1" parent="1" source="D4EkVAlg6UuBSGmFTa5y-2" target="D4EkVAlg6UuBSGmFTa5y-4">
          <mxGeometry relative="1" as="geometry" />
        </mxCell>
        <mxCell id="D4EkVAlg6UuBSGmFTa5y-2" value="AI2 S3" style="shape=cylinder3;whiteSpace=wrap;html=1;boundedLbl=1;backgroundOutline=1;size=15;fillColor=#dae8fc;strokeColor=#6c8ebf;" vertex="1" parent="1">
          <mxGeometry x="110" y="160" width="60" height="80" as="geometry" />
        </mxCell>
        <mxCell id="D4EkVAlg6UuBSGmFTa5y-4" value="Local Cache" style="shape=cylinder3;whiteSpace=wrap;html=1;boundedLbl=1;backgroundOutline=1;size=15;fillColor=#fff2cc;strokeColor=#d6b656;" vertex="1" parent="1">
          <mxGeometry x="110" y="280" width="60" height="80" as="geometry" />
        </mxCell>
        <mxCell id="D4EkVAlg6UuBSGmFTa5y-9" value="S3 Batch Put Copy Operation" style="rounded=1;whiteSpace=wrap;html=1;verticalAlign=top;fontStyle=1" vertex="1" parent="1">
          <mxGeometry x="320" y="40" width="290" height="350" as="geometry" />
        </mxCell>
        <mxCell id="D4EkVAlg6UuBSGmFTa5y-10" value="AI2 S3&lt;br&gt;Deep Archive" style="shape=cylinder3;whiteSpace=wrap;html=1;boundedLbl=1;backgroundOutline=1;size=15;fillColor=#dae8fc;strokeColor=#6c8ebf;" vertex="1" parent="1">
          <mxGeometry x="525" y="250" width="60" height="80" as="geometry" />
        </mxCell>
        <mxCell id="D4EkVAlg6UuBSGmFTa5y-11" value="AI2 S3" style="shape=cylinder3;whiteSpace=wrap;html=1;boundedLbl=1;backgroundOutline=1;size=15;fillColor=#dae8fc;strokeColor=#6c8ebf;" vertex="1" parent="1">
          <mxGeometry x="340" y="250" width="60" height="80" as="geometry" />
        </mxCell>
        <mxCell id="D4EkVAlg6UuBSGmFTa5y-14" value="" style="edgeStyle=orthogonalEdgeStyle;rounded=0;orthogonalLoop=1;jettySize=auto;html=1;" edge="1" parent="1" source="D4EkVAlg6UuBSGmFTa5y-12" target="D4EkVAlg6UuBSGmFTa5y-13">
          <mxGeometry relative="1" as="geometry" />
        </mxCell>
        <mxCell id="D4EkVAlg6UuBSGmFTa5y-12" value="Copy Shard" style="shape=process;whiteSpace=wrap;html=1;backgroundOutline=1;fillColor=#f5f5f5;fontColor=#333333;strokeColor=#666666;" vertex="1" parent="1">
          <mxGeometry x="400" y="80" width="120" height="60" as="geometry" />
        </mxCell>
        <mxCell id="D4EkVAlg6UuBSGmFTa5y-15" style="edgeStyle=orthogonalEdgeStyle;rounded=0;orthogonalLoop=1;jettySize=auto;html=1;exitX=1;exitY=0.5;exitDx=0;exitDy=0;" edge="1" parent="1" source="D4EkVAlg6UuBSGmFTa5y-13" target="D4EkVAlg6UuBSGmFTa5y-10">
          <mxGeometry relative="1" as="geometry" />
        </mxCell>
        <mxCell id="D4EkVAlg6UuBSGmFTa5y-21" value="YES" style="edgeLabel;html=1;align=center;verticalAlign=middle;resizable=0;points=[];" vertex="1" connectable="0" parent="D4EkVAlg6UuBSGmFTa5y-15">
          <mxGeometry x="0.1048" y="-3" relative="1" as="geometry">
            <mxPoint as="offset" />
          </mxGeometry>
        </mxCell>
        <mxCell id="D4EkVAlg6UuBSGmFTa5y-19" style="edgeStyle=orthogonalEdgeStyle;rounded=0;orthogonalLoop=1;jettySize=auto;html=1;exitX=0;exitY=0.5;exitDx=0;exitDy=0;entryX=0.5;entryY=0;entryDx=0;entryDy=0;entryPerimeter=0;" edge="1" parent="1" source="D4EkVAlg6UuBSGmFTa5y-13" target="D4EkVAlg6UuBSGmFTa5y-11">
          <mxGeometry relative="1" as="geometry" />
        </mxCell>
        <mxCell id="D4EkVAlg6UuBSGmFTa5y-20" value="NO" style="edgeLabel;html=1;align=center;verticalAlign=middle;resizable=0;points=[];" vertex="1" connectable="0" parent="D4EkVAlg6UuBSGmFTa5y-19">
          <mxGeometry x="0.1" y="-2" relative="1" as="geometry">
            <mxPoint as="offset" />
          </mxGeometry>
        </mxCell>
        <mxCell id="D4EkVAlg6UuBSGmFTa5y-13" value="Full Shard?" style="rhombus;whiteSpace=wrap;html=1;fillColor=#f5f5f5;fontColor=#333333;strokeColor=#666666;" vertex="1" parent="1">
          <mxGeometry x="420" y="160" width="80" height="80" as="geometry" />
        </mxCell>
        <mxCell id="D4EkVAlg6UuBSGmFTa5y-23" style="edgeStyle=orthogonalEdgeStyle;rounded=0;orthogonalLoop=1;jettySize=auto;html=1;exitX=1;exitY=0.5;exitDx=0;exitDy=0;exitPerimeter=0;entryX=0;entryY=0.5;entryDx=0;entryDy=0;" edge="1" parent="1" source="D4EkVAlg6UuBSGmFTa5y-4" target="D4EkVAlg6UuBSGmFTa5y-12">
          <mxGeometry relative="1" as="geometry" />
        </mxCell>
        <mxCell id="D4EkVAlg6UuBSGmFTa5y-24" value="S3 Batch Restore Initiate Operation" style="rounded=1;whiteSpace=wrap;html=1;verticalAlign=top;fontStyle=1" vertex="1" parent="1">
          <mxGeometry x="320" y="430" width="290" height="280" as="geometry" />
        </mxCell>
        <mxCell id="D4EkVAlg6UuBSGmFTa5y-35" value="" style="edgeStyle=orthogonalEdgeStyle;rounded=0;orthogonalLoop=1;jettySize=auto;html=1;" edge="1" parent="1" source="D4EkVAlg6UuBSGmFTa5y-28" target="D4EkVAlg6UuBSGmFTa5y-34">
          <mxGeometry relative="1" as="geometry" />
        </mxCell>
        <mxCell id="D4EkVAlg6UuBSGmFTa5y-42" value="AFTER 48 HOURS" style="edgeLabel;html=1;align=center;verticalAlign=middle;resizable=0;points=[];" vertex="1" connectable="0" parent="D4EkVAlg6UuBSGmFTa5y-35">
          <mxGeometry x="-0.225" y="3" relative="1" as="geometry">
            <mxPoint as="offset" />
          </mxGeometry>
        </mxCell>
        <mxCell id="D4EkVAlg6UuBSGmFTa5y-28" value="Restore Shard" style="shape=process;whiteSpace=wrap;html=1;backgroundOutline=1;fillColor=#f5f5f5;fontColor=#333333;strokeColor=#666666;" vertex="1" parent="1">
          <mxGeometry x="400" y="470" width="120" height="60" as="geometry" />
        </mxCell>
        <mxCell id="D4EkVAlg6UuBSGmFTa5y-36" style="edgeStyle=orthogonalEdgeStyle;rounded=0;orthogonalLoop=1;jettySize=auto;html=1;exitX=1;exitY=0.5;exitDx=0;exitDy=0;exitPerimeter=0;entryX=1;entryY=0.5;entryDx=0;entryDy=0;entryPerimeter=0;" edge="1" parent="1" source="D4EkVAlg6UuBSGmFTa5y-34" target="D4EkVAlg6UuBSGmFTa5y-10">
          <mxGeometry relative="1" as="geometry">
            <Array as="points">
              <mxPoint x="670" y="650" />
              <mxPoint x="670" y="290" />
            </Array>
          </mxGeometry>
        </mxCell>
        <mxCell id="D4EkVAlg6UuBSGmFTa5y-37" value="AFTER EXPIRATION" style="edgeLabel;html=1;align=center;verticalAlign=middle;resizable=0;points=[];" vertex="1" connectable="0" parent="D4EkVAlg6UuBSGmFTa5y-36">
          <mxGeometry x="0.2512" relative="1" as="geometry">
            <mxPoint as="offset" />
          </mxGeometry>
        </mxCell>
        <mxCell id="D4EkVAlg6UuBSGmFTa5y-34" value="AI2 S3" style="shape=cylinder3;whiteSpace=wrap;html=1;boundedLbl=1;backgroundOutline=1;size=15;fillColor=#dae8fc;strokeColor=#6c8ebf;" vertex="1" parent="1">
          <mxGeometry x="430" y="610" width="60" height="80" as="geometry" />
        </mxCell>
        <mxCell id="D4EkVAlg6UuBSGmFTa5y-40" style="edgeStyle=orthogonalEdgeStyle;rounded=0;orthogonalLoop=1;jettySize=auto;html=1;exitX=0.5;exitY=1;exitDx=0;exitDy=0;exitPerimeter=0;entryX=1;entryY=0.5;entryDx=0;entryDy=0;" edge="1" parent="1" source="D4EkVAlg6UuBSGmFTa5y-10" target="D4EkVAlg6UuBSGmFTa5y-28">
          <mxGeometry relative="1" as="geometry">
            <Array as="points">
              <mxPoint x="590" y="330" />
              <mxPoint x="590" y="500" />
            </Array>
          </mxGeometry>
        </mxCell>
        <mxCell id="D4EkVAlg6UuBSGmFTa5y-39" style="edgeStyle=orthogonalEdgeStyle;rounded=0;orthogonalLoop=1;jettySize=auto;html=1;exitX=1;exitY=0.5;exitDx=0;exitDy=0;exitPerimeter=0;entryX=0;entryY=0.5;entryDx=0;entryDy=0;" edge="1" parent="1" source="D4EkVAlg6UuBSGmFTa5y-4" target="D4EkVAlg6UuBSGmFTa5y-28">
          <mxGeometry relative="1" as="geometry" />
        </mxCell>
      </root>
    </mxGraphModel>
  </diagram>
</mxfile>
